<?xml version="1.0" encoding="utf-8"?>
<!-- Generator: Adobe Illustrator 15.0.2, SVG Export Plug-In . SVG Version: 6.00 Build 0)  -->
<!DOCTYPE svg PUBLIC "-//W3C//DTD SVG 1.1//EN" "http://www.w3.org/Graphics/SVG/1.1/DTD/svg11.dtd">
<svg version="1.1" xmlns="http://www.w3.org/2000/svg" xmlns:xlink="http://www.w3.org/1999/xlink" x="0px" y="0px"
	 width="426.879px" height="133.299px" viewBox="0 0 426.879 133.299" enable-background="new 0 0 426.879 133.299"
	 xml:space="preserve">
<g id="bg">
</g>
<g id="logo">
	<g id="it">
		<g id="i">
			<path d="M366.523,103.948h-19.347V29.526h19.347V103.948z"/>
		</g>
		<g id="t">
			<path d="M408.705,103.866h-19.34V45.831h-15.981V29.444h51.319v16.387h-15.998V103.866z"/>
		</g>
	</g>
	<path id="arrow_bg" d="M290.061,62.138L231.158,3.231c-1.244-1.244-2.867-1.863-4.5-1.872c-0.018-0.008-0.039-0.033-0.055-0.033
		H7.698c-3.531,0-6.399,2.864-6.399,6.399v117.854c0,3.525,2.868,6.393,6.399,6.393h218.894c1.649,0.008,3.306-0.611,4.566-1.867
		l58.902-58.907C292.566,68.697,292.566,64.634,290.061,62.138z"/>
	<g id="ON">
		<path fill="#F6F6F6" d="M119.471,65.618c0,19.727-14.154,33.641-33.728,33.641c-19.576,0-33.73-13.914-33.73-33.641
			c0-18.443,16.176-31.387,33.73-31.387C103.292,34.231,119.471,47.175,119.471,65.618z M68.516,65.694
			c0,10.52,7.766,18.199,17.227,18.199c9.466,0,17.226-7.68,17.226-18.199c0-8.415-7.76-16.094-17.226-16.094
			C76.282,49.601,68.516,57.279,68.516,65.694z"/>
		<path fill="#F6F6F6" d="M126.826,36.255h15.854l29.03,37.282h0.156V36.255h15.862v60.988h-15.862L142.84,59.869h-0.159v37.374
			h-15.854V36.255z"/>
	</g>
</g>
</svg>
